<svg version="1.1" id="Layer_1" xmlns="http://www.w3.org/2000/svg" xmlns:xlink="http://www.w3.org/1999/xlink" x="0px" y="0px"
	 width="100%" viewBox="0 0 1024 1024" enable-background="new 0 0 1024 1024" xml:space="preserve">
<path fill="#ffffff" opacity="1.000000" stroke="none" 
	d="
M559.109985,793.955811 
	C569.296570,807.172241 574.738098,821.915710 575.174805,838.112366 
	C575.676147,856.710632 570.113220,873.621338 557.873169,887.894653 
	C537.834351,911.262390 512.203247,919.353821 482.842194,911.821289 
	C453.921967,904.401917 435.786713,884.688965 429.312592,855.567993 
	C421.600891,820.880310 439.825623,782.845825 477.243317,769.990479 
	C481.549103,768.511169 482.793762,766.440979 482.735168,762.120605 
	C482.513733,745.791748 482.642059,729.458130 482.649689,713.126282 
	C482.650787,710.784851 482.517792,708.736206 480.605408,706.777039 
	C435.326691,660.391052 389.173828,614.874390 343.630615,568.754639 
	C336.380737,561.413025 330.950287,559.067017 320.166016,562.687195 
	C277.344666,577.061951 232.365173,551.055603 223.200516,506.983643 
	C214.524277,465.260406 239.652664,425.905762 281.936127,416.707855 
	C324.001617,407.557343 365.970581,437.629791 371.488770,480.367126 
	C373.638367,497.015228 370.930603,512.481689 363.067230,527.142212 
	C361.665894,529.754883 361.146118,531.671448 363.603241,534.136780 
	C402.654816,573.319031 441.618683,612.588684 480.609131,651.831787 
	C480.943146,652.167969 481.366882,652.414978 482.013214,652.903564 
	C484.434998,634.237915 480.223755,617.518860 469.465424,602.411255 
	C460.843567,590.303772 452.787445,577.912415 448.432739,563.477478 
	C445.533417,553.866760 443.770020,544.082703 443.752167,534.063354 
	C443.647949,475.569580 443.593170,417.075531 443.684845,358.581848 
	C443.691620,354.261017 442.410492,352.107330 438.283234,350.503052 
	C408.227203,338.820129 391.247406,316.913452 387.585449,284.770874 
	C383.897278,252.398438 402.292358,222.133987 428.238342,209.065430 
	C473.388947,186.323837 527.314636,212.892395 536.397156,262.719788 
	C542.363281,295.450012 531.680176,321.954346 504.986725,341.909668 
	C500.142334,345.531219 494.747406,348.190430 489.048157,350.096222 
	C484.489227,351.620697 482.293640,354.265808 482.323456,359.236053 
	C482.454407,381.066437 482.356171,402.898041 482.407501,424.729065 
	C482.419434,429.803101 483.916229,430.677551 488.553833,428.203583 
	C509.760712,416.890625 529.753113,403.650269 549.205200,389.582825 
	C592.703918,358.125366 632.210876,322.218445 668.013000,282.255035 
	C680.121582,268.739075 691.881958,254.907120 702.863708,240.428040 
	C705.528259,236.914948 705.333923,234.581055 702.184143,231.532028 
	C692.847778,222.494400 683.913757,213.039780 674.533936,204.049164 
	C669.925659,199.632095 667.376099,194.745361 669.024292,188.489243 
	C670.712769,182.080246 676.428528,180.888336 681.877319,179.815353 
	C707.627991,174.744583 733.396240,169.763199 759.156677,164.742172 
	C771.387146,162.358292 783.612183,159.946426 795.843506,157.566620 
	C807.802368,155.239838 813.750977,161.162216 812.344543,173.339447 
	C810.746704,187.173935 809.666565,201.067810 808.322876,214.932144 
	C806.754211,231.117905 805.099121,247.295380 803.566895,263.484528 
	C802.425293,275.545746 801.307190,287.611328 800.402344,299.691772 
	C799.973999,305.411804 798.349121,310.134064 792.573730,312.417694 
	C786.740173,314.724304 782.318420,312.352783 778.255066,308.260742 
	C770.741760,300.694366 762.974976,293.376282 755.568542,285.708710 
	C752.467896,282.498779 750.439392,282.885498 747.501282,285.922272 
	C728.606323,305.452240 708.507751,323.686523 687.646729,341.097687 
	C662.307800,362.246246 636.136841,382.311218 608.617493,400.518860 
	C572.003601,424.743683 533.482849,445.495178 492.808960,462.142212 
	C479.946960,467.406342 482.041656,464.800110 481.964478,478.528229 
	C481.872711,494.859344 482.252502,511.197296 481.915070,527.521667 
	C481.557037,544.842224 486.431976,560.299255 496.651794,574.202576 
	C506.093719,587.047546 513.689880,600.832336 517.589233,616.434204 
	C519.655334,624.700806 520.597412,633.085632 520.336609,641.616699 
	C520.205872,645.893921 520.313782,650.178406 520.313782,654.393494 
	C522.519165,654.774658 523.196228,653.433655 524.076538,652.550659 
	C553.838074,622.698547 583.774597,593.017212 613.243835,562.879028 
	C625.824402,550.012878 638.819824,537.573975 651.407104,524.720337 
	C654.755310,521.301208 655.145081,518.226501 653.788269,513.649658 
	C641.710693,472.908875 662.922241,431.402466 704.114258,418.504059 
	C749.474182,404.300629 795.174500,435.279114 800.984436,481.357666 
	C806.203369,522.749084 777.516968,559.887695 738.080505,565.498535 
	C718.664673,568.260925 700.627991,564.858032 684.166382,554.189087 
	C680.687683,551.934509 678.698364,552.651367 676.097717,555.279785 
	C651.610901,580.027954 627.016479,604.669617 602.492676,629.381348 
	C576.434265,655.639404 550.458069,681.979370 524.330078,708.167908 
	C521.383301,711.121521 520.135864,714.134766 520.192200,718.301086 
	C520.394836,733.296875 520.350098,748.298035 520.198608,763.295166 
	C520.161621,766.959473 521.057068,768.895813 524.960632,770.060791 
	C538.786621,774.187073 549.806763,782.600220 559.109985,793.955811 
z"/>
</svg>